<?xml version="1.0"?>
<svg baseprofile="tiny" fill="rgba(255,255,255,0.15)" height="1000" stroke="rgba(255,255,255,0.2)" stroke-linecap="round" stroke-linejoin="round" stroke-width=".5" version="1.2" viewBox="0 0 1000 1000" width="1000" xmlns="http://www.w3.org/2000/svg">
<path d="M607.1 332.7l-1.1 0.2-1.9 0.8-1 0-0.8-0.4-2.2-2-0.3-0.1-1-0.3-0.4-0.2-1.2-1-1.5-0.9-0.3-0.3-0.4-0.2-0.6-0.1-2.1 0-0.2 0-0.1-0.2-0.1-0.2-0.1-0.1-0.2-0.2-0.1-0.1-0.2 0-0.1 0.1-0.1 0-0.1 0.1-0.2-0.1-0.1-0.1-0.1-0.2-0.1 0-0.1-0.2 0-0.7 0-0.3-0.2-0.4-0.1 0-0.2 0-0.3 0.1-0.1 0-0.1 0.3-0.1 0-1.8 0-1-0.5-0.8-1-0.9-0.6-1.1 0.4-0.6 0.2-0.7-0.2-2.8-1.5-0.3-0.3-0.8-1.2-0.3-0.4-0.4-0.2-1-0.6-0.4 0-0.4-0.2-3.5-2.5-2.7-2.8-1-0.6-0.6-0.3-0.5-0.5-0.1-0.1-0.2-0.5-0.4-0.4-0.2-0.2-0.2-0.1-0.3-0.1-0.3-0.2-1.3-0.9-1.2-1.5-0.1-0.2-0.5-1.7-0.1-0.2-0.1-0.1-0.2-0.2-0.1 0-0.4-0.6-1.1-2.3-0.3-0.9-0.1-1-0.2-2.2-0.1-0.5-0.3-0.4-0.7-1.2-0.2-0.4 0-0.4 0.1-0.5 0.6-1.6 0.1-0.5 0.1-0.5-0.2-1.5 0.1-0.5 0.1-0.5 0.4-1.5 0.1-0.4 0-0.6-0.2-1.4 0.1-0.5 0.1-0.4 0.7-1.2 0.1-0.5-0.1-0.5-0.2-0.5-0.6-0.8-0.2-0.6-0.1-0.6 0-0.6 0.2-0.5 0.6-0.8 0.2-0.4 0-0.2 0.1-0.8 0.3-0.7 0-0.4 0-0.3 0-0.1 0.1 0-0.1-0.2 0-0.2 0-0.2 0.1-0.2 0.2-0.2 0.1 0 0.6-0.2 0.4 0 0.4 0 1.5 0 0.4-0.1 0.4-0.1 0.4-0.2 0.4-0.2 0.7-0.6 0.6-0.7 1.1-1.6 0.5-0.6 0.3-0.4 0.1-0.2 0.3-0.3 0.3-0.2 0.1 0 0.2-0.4 0.2-0.2 0.1-0.1 0.2-0.1 0.3-0.1 0.1 0 0.1-0.2 0.4-0.7 0.9-1.1 0.1-0.3 0.1 0 0.6-2.1 0.2-0.3 0.8-0.7 0.3-0.3 1.3-2.4 1.2-1.8 0.8-1.5 1-1.3 0.4-0.8 1.1-1.5 1.2-2.2 0.2-0.5 0.1-1.4 0.1-0.4 0.4-1.2 0-0.4 0-1.4 0.2-0.9 0-0.4-0.1-0.4-0.5-1.1-0.2-0.4-0.2-1.1 1.7-0.1 0.3 0 1.3-0.6 0.1 0 0.1 0 0.1 0 0.5 0.2 0.2 0 1.4-0.3 1.1 0.2 1.9 0.7 1.6-0.9 0.4-0.3 0.2-0.3 0.8-0.7 1.1-0.7 0.5-0.3 0.3-0.1 0.7 0.1 1.2 0.3 0.6 0.1 0.2 0 1.7-0.3 0.4-0.2 0.4-0.2 2.6-1.1 0.6 0 0.3 0 0.3 0.1 0.2 0.1 0.5 0.4 0.1 0.1 0.2 0.1 0.5 0 0.9 0 4 1.1 0.7 0.5 0.2 0.3 0 0.2 0.2 0.5 0.3 0.5 0.5 0.6 1.2 1.2 0.9 0.8 0.3 0.4 0.1 0.4 0.1 1.1 0.2 0.5 0.8 1.6 0.2 0.4 2.4 2.5 1.1 0.9 0.2 0 0.1 0.7 0.1 0.4 0.1 0.6 0 1 0 0.2-0.2 0.6-0.1 0.4-0.2 0.1-0.5-0.1-0.9 0.3-0.4 0.2-0.1 0.5 0.1 0.2 0.9 1.3 0.1 1.2-0.3 0.8-0.6 0.8-0.2 1.1 0.1 1 0 0.7-0.2 0.2-0.4 1-0.2 0.1-0.3 0.3-0.2 0.1-0.2 0.5-0.1 1.1-0.2 0.5-0.3 0.3-0.8 0.5-0.4 0.3-0.2 0.7 0.5 0.7 0.2 0.1 0.6 0.5 0.5 0.7 0.2 1-0.2 1.1-1.3 3.8-0.2 0.3-0.5 0.2-1 0.2-0.4 0.2-0.3 0.3-0.6 0.6-0.2 0.5 0.3 0.5 0.7 0.7 0.2 0.8 0 1.1 0 1.1-0.2 0.9-0.5 0.8-0.1 0.5 0.2 0.5 1.4 1.9 0.2 0.7-0.1 0.7-1.3 2-0.5 1-0.2 0.3 0 0.1 0-0.1-0.4 1.1-0.1 1.1 0.3 3 0.3 1.7 0.3 2.5 0.2 0.5 0.6 0.9 0.1 0.4-0.1 0.5-0.3 0.9-0.1 0.6 0.3 1.1 0 0.6-0.2 0.3-0.8 0.7-0.2 0-0.5 0.1-0.3 0-2.9-0.5-0.7 0.4-0.1 0.1-0.2 0.2 0 0.2 0.4 0.2 0 0.2-0.1 0.3 0 0.2-0.1 0.5-0.2 1.1 0 0.5 0.3 1.1 0.1 0.6-0.2 0.2-0.4 0.2-0.4 0.5-0.6 0.8-0.3 0.9-0.4 1.1-0.2 1.1-0.1 1 0.2 1.1-0.1 0.3-0.2 0.5-0.1 1.8 0 0.6 0.1 1 0.4 0.8 1.1 1.6 0.2 0.4 0.1 0.5 0.1 1.1 0.2 1.4 0 0.3-0.1 0.3 0 0.1z"/>
<path d="M398.9 121.6l0.1-0.1 0.4-0.2 0.3 0 0.4 0.1 0.4 0 0.5-0.1 0.4-0.2 0.2-0.3 0-0.5-0.4-0.6-0.7-0.6-0.5-0.6 0.1-0.9 0.1-0.2-0.1-0.2-0.1-0.1-0.1-0.2-0.1-0.1-0.2-0.2-0.1-0.1 0-0.1 0-0.1 0.1-0.1-0.2-0.3-0.1-0.2-0.2-0.1-0.4 0-0.2-0.1-0.5-0.3-0.2-0.2-0.1-0.2-0.4-1.2-0.1-0.4 0.2-0.5 1-2.1 0.3-0.8 0-0.3 0.1-0.4 0.2-0.2 0.2-0.1 0.4 0.6 0.3 0.1 0.1-0.4 0.2-0.7 0.8-1.8 0.4-0.2 0.3 0 0.4 0.2 0.4-0.1 0.2-0.2 0.8-1.3 0.2-0.6 0.1-0.2 0.4-0.2 0.7-0.3 1-0.5 1-0.4 1.1-0.4 1-0.5 2.6-1.1 2.6-1.2 2.6-1.2 2.6-1.1 0.2-0.1 0.4-0.2 0.4-0.1 0.2-0.1 0.8-0.3 1-0.6 0.5-0.7 0.4-1.5 0.7-2.2 0.7-2.3 14 2.8 25-0.4 0.7 0.1 0.1 0 0.1 0.1 0.1 0.1 0.1 0.1 0.2 0.5 0.1 0.2 0.2 1.7 0 0.1 0.1 0.3 0 0.1 0.3 0.4 0.4 0.5 0.2 0.3 0.1 0.2 0 0.2 0 0.1 0 0.3-0.5 1.8 0 0.2 0 0.2 0 0.2 0 0.1-0.1 0.2-0.3 0.3-1 0.8-0.2 0.1-0.1 0-0.2 0-0.9 0-0.8 0.1-1.4 0 1.3 1.6 0.7 0.6 0.5 0.6 0.8 1.9 0.4 0.5-1-2.4 0.6-0.4 0.4-0.7 0.2-0.3 0.2-0.1 0.3-0.2 0.4 0 0.3 0 0.4 0.1 0.3 0.2 0.4 0.7 0.6 0.6 0.8 0.5-0.8-3.5z"/>
<path d="M467.4 52.4l0 0.5-0.1 0.3-0.3 0.4 5.5-0.1z"/>
<path d="M526.5 98l0-12.8-0.1-24.4 0.8 0.1 34.1 0z"/>
<path d="M504.5 133.1l6.4-8.2 15.7-20.5-0.1-6.4z"/>
<path d="M665.6 190.8l-0.1-0.1-1.6-1.1z"/>
<path d="M620.3 252.7l-0.2 0-1.1-0.9-2.4-2.5z"/>
<path d="M385.7 182.1l0.3 0 5.6 0.5z"/>
<path d="M375 196.8l1.4 0.4z"/>
<path d="M362.5 290.8l0.2-0.1 3.2-0.5z"/>
<path d="M358.9 386.4l0.1 0.2z"/>
<path d="M331.2 543.2l0.2 0 10.9-0.1 37.9 0.1z"/>
<path d="M329.1 515.8l0.2 0 2.6 0.2z"/>
<path d="M333.6 658.4l0.1 0 41.7 0 26.2 0 16.2 0z"/>
<path d="M395.7 948.6l0.2-1.2 0-2z"/>
<path d="M568.8 314l1 0.6 2.7 2.8z"/>
<path d="M609.8 349l-0.1 0.3z"/>
<path d="M581.9 242.9l0.2 1.1z"/>
<path d="M449.5 146.8l6.1 1z"/>
<path d="M482 146l0.1-0.8z"/>
<path d="M435.5 280.1l1.4 0.3z"/>
<path d="M404.1 423.4l0-18.9z"/>
<path fill="rgba(255,255,255,0.5)" stroke="white" stroke-width="2" d="M463 238.1l4.5-1.2 1-0.6 1.8-1.9 2.2-2.5 0.2-0.4 0.1-0.5-0.6-5.5 0.2-0.8 1.4-0.5 6-1.5 3.9-1.1 2.3-0.5 0.8 0 4.1 1 0.2 0.1 0 0.1 0.1 0.3-0.1 0.6 0 0.3 0.1 0.2 0.3 0.2 1.5 0.9 0.1 0.1 0.2 0.3 0.2 0.2 0.1 0.1 1.3 0.2 0.2 0.1 0.1 0.1 0.3 0.2 0.2 0.2 0.2 0.1 0.2 0 1.2 0.1 0.4 0 2.4-0.4 0.3 0.1 1.5 0.4 0.2 0.1 0.8-0.2 0.2 0 0.1 0.1 0.1 0.1 0 0.1 0 0.1 0 0.1-0.1 0.7 0 0.1 0.1 0.2 0.2 0 0.7 0.1 0.2 0.1 0.2 0.1 0 0.1 0 0.2 0 0.4 0.1 0.1 0.1 0.2 0.5 0.1 11.8 0 7-0.1 3.4 0.2 1 0.6 3.2 8.4-1 6.3 0.1 0.6 0.1 0.4 4.6 5.1 1 1.4-0.2 1.4-5.3 19.9-0.4 0.8-0.9 0.8-0.8 0.8-0.3 0.3 0 0.3 0 0.1 0.3 0.6 0.1 0.1 0 0.1 0 0.2 0 0.3-0.1 1.1 0 0.3 0.1 1.5 0.1 0.1 0 0.1 0 0.1 0.3 0.5 0.2 0.2 0.1 0.1 0 0.2 0 0.2-0.3 0.7-0.2 0.4-0.1 0.4-0.1 0.6 0 2 0.5 0.6 0.5 0.4 0.6 0.8 0.2 0.1 0.6 0.3 0.4 0.3 0.1 0.1 0.1 0.2 0.6 2.1 0.1 0.4 0.5 0.8 1.5 1.1 0.2 0.3 0.3 0.3 0.1 0.2 0.1 0.5 0.2 0.8 0 0.8-0.5 0.8-4.7 7.6-6.3 10.3-8.4 13.7-10.1-0.1-0.7 0.9-0.1 4.1-0.1 10.7-11.8 0-11 0-12.4 0 0-0.1 0-26-1-18.8 0.1-0.2 0.1-0.3 0.6-1.1-0.6-0.5-0.6-0.7-5.8-3.6-1-0.5-0.7-0.2-1.8 0 0-6.4-0.1-8.5 0-4.2 0.2-1.5 1.4-4.1 0.3-0.8 0.4-1.2 1.7-5.1 0-0.4 0.2-0.7 0.5-1.7 0.3-0.9 0.1-0.3 0.4-0.7 0.3-0.7 1.7-5z"/>
</svg>
